<?xml version="1.0" encoding="utf-8"?>
<svg viewBox="20.476 250.803 152.224 143.997" xmlns="http://www.w3.org/2000/svg">
  <defs>
    <style type="text/css">
	.st0{fill:#065FA3;}
	.st1{fill:#FFFFFF;}
</style>
  </defs>
  <path class="st0" d="M107.3,270.1c0.4-7.1,6.6-13.2,12.9-15c15.8-4.5,24.2-3.7,52.5-3.9c-17,15.2-30.5,39.1-27.5,62.5 c-6.1-5-10.2-12.1-15.5-17.8c2-3.8,4-7.6,5.1-11.9c1.9-7.1,7-8.8,13.4-8.6c0.5,0-0.4-5.5-2.2-5.9c-4.8-1.3-8.9,0.3-14.5-1.9 c-1.8-0.7-3.8,0.2-5.3,1c-4.6,2.3-7.5,7.4-12.7,9L107.3,270.1z"/>
  <path class="st0" d="M20.7,265.5c9.7-6.6,19-11.2,30.5-13.2c14.4-2.6,30.1-2.8,40.9,7.6c20.4,19.6,36.9,40.2,54.8,62.7 c0.7,0.9,0.6,3.3,0,3.6c-12.7,7.2-25.3,13.2-38.8,18.2c-2.2,0.8-4.9-0.2-6.2-1.4C81.5,324.4,67.5,302.2,48,283 c-7.5-7.4-16.6-12.7-26.7-15.9C20.4,266.8,20.3,265.8,20.7,265.5z"/>
  <path class="st0" d="M92,355.8c-14.7,10.5-27.3,23.5-36.6,39c-3.6-15.1-3.8-31.1,1.5-45.9c5.1-14.3,6.1-28.2,6.8-43.2 c9.3,10.7,19.9,22.5,28.5,33.3L92,355.8z"/>
</svg>